<svg width="127" height="125" viewBox="0 0 127 125" fill="none" xmlns="http://www.w3.org/2000/svg">
  <mask id="mask0_1_186" style="mask-type:alpha" maskUnits="userSpaceOnUse" x="0" y="0" width="127" height="125">
    <path d="M123.191 52.8171C122.991 53.3642 122.97 54.1117 123.169 54.6534C125.256 60.4277 126.034 66.3592 125.85 72.621C125.823 73.6502 125.769 74.6902 125.688 75.7357C125.688 75.7519 125.683 75.7682 125.683 75.7844C125.239 80.0962 123.672 88.3081 118.149 97.0617C105.124 115.956 86.489 124.893 63.2874 124.828C38.9185 124.763 19.6081 114.813 6.58324 93.5895C6.57784 93.5841 6.57784 93.5787 6.57243 93.5733C1.79484 83.5847 1.21115 75.194 1.1463 73.9427C1.1409 73.8344 1.1409 73.7802 1.1409 73.7802C0.795006 67.3992 1.59487 61.1861 3.58914 55.103C3.91882 54.1117 3.6594 52.8225 3.36215 51.7554C-0.291302 38.495 -1.21007 25.1154 1.81646 11.6276C2.36232 9.21165 3.44322 6.82283 4.71328 4.68318C7.1345 0.582648 11.0528 -0.906979 15.625 0.539313C17.9922 1.28684 20.4458 2.28895 22.3806 3.80024C26.4124 6.94742 30.1902 10.4359 33.9517 13.9189C36.0541 15.8689 37.9186 18.0844 40.1021 20.4028C55.6022 15.2785 71.1834 15.2297 86.8457 20.4136C89.0886 18.0411 91.2504 15.7606 93.4068 13.4747C97.2008 9.47166 101.168 5.65821 105.961 2.86855C107.734 1.83935 109.674 0.98891 111.636 0.42556C115.771 -0.766142 119.294 0.582648 121.862 4.03317C124.018 6.93117 125.007 10.3059 125.715 13.7672C127.217 21.0853 127.131 28.4847 126.515 35.8733C126.034 41.6314 125.229 47.3515 123.191 52.8171Z" fill="#EF127C"/>
  </mask>
  <g mask="url(#mask0_1_186)">
    <rect x="-21.0386" y="-4.2077" width="168.308" height="78.1933" fill="#EF127C"/>
  </g>
</svg>
