<svg width="30" height="30" viewBox="0 0 30 30" fill="none" xmlns="http://www.w3.org/2000/svg">
  <path d="M15 2.5C16.6415 2.5 18.267 2.82332 19.7835 3.45151C21.3001 4.07969 22.6781 5.00043 23.8388 6.16117C24.9996 7.3219 25.9203 8.69989 26.5485 10.2165C27.1767 11.733 27.5 13.3585 27.5 15C27.5 18.3152 26.183 21.4946 23.8388 23.8388C21.4946 26.183 18.3152 27.5 15 27.5C13.3585 27.5 11.733 27.1767 10.2165 26.5485C8.69989 25.9203 7.3219 24.9996 6.16117 23.8388C3.81696 21.4946 2.5 18.3152 2.5 15C2.5 11.6848 3.81696 8.50537 6.16117 6.16117C8.50537 3.81696 11.6848 2.5 15 2.5ZM15 5C12.3478 5 9.8043 6.05357 7.92893 7.92893C6.05357 9.8043 5 12.3478 5 15C5 17.6522 6.05357 20.1957 7.92893 22.0711C9.8043 23.9464 12.3478 25 15 25C17.6522 25 20.1957 23.9464 22.0711 22.0711C23.9464 20.1957 25 17.6522 25 15C25 12.3478 23.9464 9.8043 22.0711 7.92893C20.1957 6.05357 17.6522 5 15 5ZM15 13.125C15.4973 13.125 15.9742 13.3225 16.3258 13.6742C16.6775 14.0258 16.875 14.5027 16.875 15C16.875 15.4973 16.6775 15.9742 16.3258 16.3258C15.9742 16.6775 15.4973 16.875 15 16.875C14.5027 16.875 14.0258 16.6775 13.6742 16.3258C13.3225 15.9742 13.125 15.4973 13.125 15C13.125 14.5027 13.3225 14.0258 13.6742 13.6742C14.0258 13.3225 14.5027 13.125 15 13.125ZM9.375 13.125C9.87228 13.125 10.3492 13.3225 10.7008 13.6742C11.0525 14.0258 11.25 14.5027 11.25 15C11.25 15.4973 11.0525 15.9742 10.7008 16.3258C10.3492 16.6775 9.87228 16.875 9.375 16.875C8.87772 16.875 8.40081 16.6775 8.04917 16.3258C7.69754 15.9742 7.5 15.4973 7.5 15C7.5 14.5027 7.69754 14.0258 8.04917 13.6742C8.40081 13.3225 8.87772 13.125 9.375 13.125ZM20.625 13.125C21.1223 13.125 21.5992 13.3225 21.9508 13.6742C22.3025 14.0258 22.5 14.5027 22.5 15C22.5 15.4973 22.3025 15.9742 21.9508 16.3258C21.5992 16.6775 21.1223 16.875 20.625 16.875C20.1277 16.875 19.6508 16.6775 19.2992 16.3258C18.9475 15.9742 18.75 15.4973 18.75 15C18.75 14.5027 18.9475 14.0258 19.2992 13.6742C19.6508 13.3225 20.1277 13.125 20.625 13.125Z" fill="white"/>
</svg>
