<svg width="20" height="20" viewBox="0 0 20 20" fill="none" xmlns="http://www.w3.org/2000/svg">
<path d="M4.27352 10.3026H15.4193C16.2599 10.3026 17.0201 9.96213 17.5709 9.41129C18.1218 8.86044 18.4622 8.10028 18.4622 7.25859C18.4622 5.57851 17.1005 4.21572 15.4193 4.21572H1.23065" stroke="white" stroke-width="2" stroke-miterlimit="10" stroke-linecap="round" stroke-linejoin="round"/>
<path d="M15.4206 10.3021H4.27371C3.43312 10.3021 2.67295 10.6425 2.121 11.1934C1.57016 11.7442 1.22974 12.5044 1.22974 13.345C1.22974 15.0251 2.59142 16.3879 4.2726 16.3879H18.4613" stroke="white" stroke-width="2" stroke-miterlimit="10" stroke-linecap="round" stroke-linejoin="round"/>
<path d="M5.01531 6.1124C6.06914 6.1124 6.92343 5.2581 6.92343 4.20427C6.92343 3.15044 6.06914 2.29614 5.01531 2.29614C3.96148 2.29614 3.10718 3.15044 3.10718 4.20427C3.10718 5.2581 3.96148 6.1124 5.01531 6.1124Z" fill="white"/>
<path d="M12.6346 6.1124C13.6885 6.1124 14.5428 5.2581 14.5428 4.20427C14.5428 3.15044 13.6885 2.29614 12.6346 2.29614C11.5808 2.29614 10.7265 3.15044 10.7265 4.20427C10.7265 5.2581 11.5808 6.1124 12.6346 6.1124Z" fill="white"/>
<path d="M6.92326 18.2962C7.97709 18.2962 8.83139 17.4419 8.83139 16.3881C8.83139 15.3343 7.97709 14.48 6.92326 14.48C5.86943 14.48 5.01514 15.3343 5.01514 16.3881C5.01514 17.4419 5.86943 18.2962 6.92326 18.2962Z" fill="white"/>
<path d="M14.6637 18.2962C15.7176 18.2962 16.5719 17.4419 16.5719 16.3881C16.5719 15.3343 15.7176 14.48 14.6637 14.48C13.6099 14.48 12.7556 15.3343 12.7556 16.3881C12.7556 17.4419 13.6099 18.2962 14.6637 18.2962Z" fill="white"/>
<path d="M9.35686 12.2105C10.4107 12.2105 11.265 11.3562 11.265 10.3024C11.265 9.24856 10.4107 8.39426 9.35686 8.39426C8.30303 8.39426 7.44873 9.24856 7.44873 10.3024C7.44873 11.3562 8.30303 12.2105 9.35686 12.2105Z" fill="white"/>
</svg>
