<svg width="20" height="20" viewBox="0 0 20 20" fill="none" xmlns="http://www.w3.org/2000/svg">
  <path d="M9.17949 14.673C8.71464 14.673 8.31487 14.8372 7.99154 15.1595C7.66822 15.4818 7.505 15.8816 7.505 16.3475C7.505 16.7989 7.66925 17.1914 7.99154 17.5137C8.31487 17.8371 8.71464 18.0003 9.17949 18.0003C9.62987 18.0003 10.0224 17.8371 10.3457 17.5137C10.6691 17.1904 10.8323 16.7979 10.8323 16.3475C10.8323 15.8826 10.6691 15.4829 10.3457 15.1595C10.0234 14.8362 9.63091 14.673 9.17949 14.673Z" fill="#EF127C"/>
  <path d="M14.2784 3.85107C14.0976 3.30151 13.8114 2.81084 13.4282 2.39144C13.045 1.97205 12.5471 1.63116 11.9479 1.37911C11.3498 1.12706 10.6257 1 9.79516 1C9.14954 1 8.53491 1.09813 7.96779 1.29234C7.39861 1.48654 6.89864 1.76855 6.47925 2.12906C6.05985 2.48958 5.71587 2.93687 5.45658 3.45646C5.1973 3.97606 5.04339 4.56073 5 5.20119C5 5.27867 5.00723 5.36544 5.02273 5.46047C5.03719 5.55654 5.10743 5.68153 5.36155 5.72699C5.36258 5.72699 5.36465 5.72699 5.36568 5.72802L7.39965 6.0028C7.67752 6.05445 7.77152 5.91602 7.80251 5.83029C7.8397 5.72492 7.86553 5.63712 7.88206 5.55551C7.9492 5.08653 8.14547 4.69606 8.4657 4.39546C8.78386 4.09692 9.20326 3.9461 9.71149 3.9461C10.2714 3.9461 10.7021 4.11655 10.9924 4.45124C11.2858 4.79109 11.4345 5.22288 11.4345 5.73215C11.4345 6.17944 11.3529 6.55648 11.1928 6.85089C11.0275 7.15355 10.822 7.43969 10.5813 7.70104C10.3375 7.96549 10.0617 8.23097 9.76211 8.48922C9.45324 8.75573 9.16194 9.07905 8.89646 9.45197C8.63098 9.82591 8.39752 10.2804 8.20435 10.8031C8.01015 11.3279 7.89755 11.9849 7.86863 12.7606C7.86863 12.8474 7.89342 12.9414 7.943 13.0406C8.00395 13.1635 8.13514 13.2255 8.33244 13.2255H10.2218C10.4222 13.2255 10.5513 13.1615 10.604 13.0344C10.6422 12.9414 10.6691 12.8588 10.6846 12.7813C10.6856 12.7772 10.6856 12.773 10.6866 12.7689C10.728 12.2338 10.8488 11.7679 11.0472 11.3857C11.2476 10.9984 11.4893 10.6451 11.7651 10.3352C12.043 10.0222 12.3477 9.71745 12.669 9.43027C12.9974 9.1369 13.3053 8.80738 13.5842 8.45099C13.8641 8.09151 14.0976 7.67935 14.2784 7.22586C14.4591 6.76928 14.5511 6.21043 14.5511 5.56377C14.549 4.9729 14.4581 4.39752 14.2784 3.85107Z" fill="#EF127C"/>
</svg>
