<svg width="20" height="20" viewBox="0 0 20 20" fill="none" xmlns="http://www.w3.org/2000/svg">
  <path d="M4.40468 12.646C4.19689 12.6226 4.01624 12.5796 3.8618 12.5168C3.70735 12.4541 3.57631 12.3858 3.46867 12.3109C3.36103 12.237 3.27398 12.1612 3.20753 12.0844C3.14107 12.0077 3.0924 11.9468 3.06057 11.8991C3.02501 11.8439 3.03717 11.7914 3.09614 11.7409L3.40783 11.4526C3.47055 11.3936 3.52483 11.3899 3.57257 11.4404C3.60814 11.4798 3.65775 11.5294 3.72233 11.5902C3.78692 11.651 3.86835 11.7091 3.96569 11.7634C4.06397 11.8186 4.17629 11.8663 4.30359 11.9075C4.43089 11.9487 4.57129 11.9693 4.72386 11.9693C4.93165 11.9693 5.09358 11.93 5.21152 11.8523C5.32945 11.7737 5.38749 11.666 5.38749 11.5294C5.38749 11.4198 5.35566 11.3328 5.29389 11.2682C5.23117 11.2036 5.14787 11.1503 5.04397 11.1063C4.94008 11.0632 4.82307 11.0267 4.69203 10.9977C4.56099 10.9687 4.42714 10.9378 4.28955 10.9069C4.15196 10.876 4.01811 10.8377 3.88707 10.7927C3.75603 10.7478 3.63809 10.687 3.53419 10.6102C3.4303 10.5335 3.34699 10.438 3.28428 10.3219C3.22157 10.2068 3.19068 10.0608 3.19068 9.8848C3.19068 9.73223 3.21689 9.58715 3.27024 9.45049C3.32266 9.31383 3.40034 9.19215 3.50237 9.08639C3.60439 8.98062 3.73169 8.89263 3.88426 8.82243C4.03683 8.75223 4.21093 8.7073 4.40749 8.68765V8.14102C4.40749 8.06239 4.44493 8.02402 4.51887 8.02402H4.92978C5.0084 8.02402 5.04772 8.06333 5.04772 8.14102V8.69888C5.21994 8.72602 5.36877 8.76721 5.49419 8.82243C5.61962 8.87766 5.72538 8.93662 5.8115 9.00121C5.89761 9.06579 5.96687 9.13038 6.02023 9.19496C6.07264 9.25955 6.11289 9.31383 6.14097 9.35689C6.15314 9.38029 6.15876 9.40556 6.15876 9.43364C6.15876 9.46079 6.13723 9.49074 6.09417 9.52163L5.73568 9.76218C5.65706 9.80898 5.60464 9.80898 5.5775 9.76218C5.5541 9.73129 5.51946 9.69385 5.47453 9.6508C5.42961 9.60774 5.37345 9.56562 5.30699 9.52444C5.24053 9.48325 5.1591 9.44768 5.06363 9.41867C4.96722 9.38965 4.85864 9.37467 4.7379 9.37467C4.51513 9.37467 4.34103 9.42148 4.21841 9.51601C4.09486 9.60961 4.03309 9.72755 4.03309 9.86889C4.03309 9.96717 4.06397 10.0458 4.12669 10.1066C4.1894 10.1675 4.2727 10.2161 4.3766 10.2536C4.4805 10.291 4.59843 10.3219 4.73228 10.3472C4.86519 10.3725 4.99998 10.4015 5.13757 10.4324C5.27423 10.4642 5.40995 10.5035 5.54286 10.5531C5.67578 10.6018 5.79465 10.6664 5.89855 10.7469C6.00244 10.8274 6.08575 10.9303 6.14846 11.0548C6.21117 11.1802 6.24206 11.3347 6.24206 11.5191C6.24206 11.6482 6.21866 11.7765 6.17186 11.9038C6.12506 12.0311 6.05299 12.1453 5.95751 12.2473C5.86111 12.3493 5.73849 12.4364 5.58779 12.5084C5.43709 12.5805 5.25738 12.6292 5.05052 12.6526V13.2404C5.05052 13.3228 5.01121 13.3639 4.93259 13.3639H4.52168C4.4468 13.3639 4.4103 13.3228 4.4103 13.2404V12.646H4.40468Z"/>
  <path d="M9.7867 12.646C9.57891 12.6226 9.39826 12.5796 9.24381 12.5168C9.08937 12.4541 8.95833 12.3858 8.85069 12.3109C8.74305 12.237 8.656 12.1612 8.58955 12.0844C8.52309 12.0077 8.47442 11.9468 8.44259 11.8991C8.40703 11.8439 8.41919 11.7914 8.47816 11.7409L8.78985 11.4526C8.85256 11.3936 8.90685 11.3899 8.95459 11.4404C8.99016 11.4798 9.03977 11.5294 9.10435 11.5902C9.16894 11.651 9.25037 11.7091 9.34771 11.7634C9.44599 11.8186 9.55831 11.8663 9.68561 11.9075C9.81291 11.9487 9.95331 11.9693 10.1059 11.9693C10.3137 11.9693 10.4756 11.93 10.5935 11.8523C10.7115 11.7737 10.7695 11.666 10.7695 11.5294C10.7695 11.4198 10.7377 11.3328 10.6759 11.2682C10.6132 11.2036 10.5299 11.1503 10.426 11.1063C10.3221 11.0632 10.2051 11.0267 10.0741 10.9977C9.94301 10.9687 9.80916 10.9378 9.67157 10.9069C9.53398 10.876 9.40013 10.8377 9.26909 10.7927C9.13805 10.7478 9.02011 10.687 8.91621 10.6102C8.81232 10.5335 8.72901 10.438 8.6663 10.3219C8.60359 10.2068 8.5727 10.0608 8.5727 9.8848C8.5727 9.73223 8.59891 9.58715 8.65226 9.45049C8.70468 9.31383 8.78236 9.19215 8.88439 9.08639C8.98641 8.98062 9.11371 8.89263 9.26628 8.82243C9.41885 8.75223 9.59295 8.7073 9.78951 8.68765V8.14102C9.78951 8.06239 9.82695 8.02402 9.90089 8.02402H10.3118C10.3904 8.02402 10.4297 8.06333 10.4297 8.14102V8.69888C10.602 8.72602 10.7508 8.76721 10.8762 8.82243C11.0016 8.87766 11.1074 8.93662 11.1935 9.00121C11.2796 9.06579 11.3489 9.13038 11.4022 9.19496C11.4547 9.25955 11.4949 9.31383 11.523 9.35689C11.5352 9.38029 11.5408 9.40556 11.5408 9.43364C11.5408 9.46079 11.5192 9.49074 11.4762 9.52163L11.1177 9.76218C11.0391 9.80898 10.9867 9.80898 10.9595 9.76218C10.9361 9.73129 10.9015 9.69385 10.8566 9.6508C10.8116 9.60774 10.7555 9.56562 10.689 9.52444C10.6226 9.48325 10.5411 9.44768 10.4456 9.41867C10.3492 9.38965 10.2407 9.37467 10.1199 9.37467C9.89715 9.37467 9.72305 9.42148 9.60043 9.51601C9.47688 9.60961 9.4151 9.72755 9.4151 9.86889C9.4151 9.96717 9.44599 10.0458 9.5087 10.1066C9.57142 10.1675 9.65472 10.2161 9.75862 10.2536C9.86251 10.291 9.98045 10.3219 10.1143 10.3472C10.2472 10.3725 10.3829 10.4015 10.5196 10.4324C10.6562 10.4642 10.792 10.5035 10.9249 10.5531C11.0578 10.6018 11.1767 10.6664 11.2806 10.7469C11.3845 10.8274 11.4678 10.9303 11.5305 11.0548C11.5932 11.1802 11.6241 11.3347 11.6241 11.5191C11.6241 11.6482 11.6007 11.7765 11.5539 11.9038C11.5071 12.0311 11.435 12.1453 11.3395 12.2473C11.2431 12.3493 11.1205 12.4364 10.9698 12.5084C10.8191 12.5805 10.6394 12.6292 10.4325 12.6526V13.2404C10.4325 13.3228 10.3932 13.3639 10.3146 13.3639H9.9037C9.82882 13.3639 9.79231 13.3228 9.79231 13.2404V12.646H9.7867Z"/>
  <path d="M15.1694 12.646C14.9616 12.6226 14.7809 12.5796 14.6265 12.5168C14.4721 12.4541 14.341 12.3858 14.2334 12.3109C14.1257 12.237 14.0387 12.1612 13.9722 12.0844C13.9058 12.0077 13.8571 11.9468 13.8253 11.8991C13.7897 11.8439 13.8019 11.7914 13.8609 11.7409L14.1725 11.4526C14.2353 11.3936 14.2895 11.3899 14.3373 11.4404C14.3728 11.4798 14.4225 11.5294 14.487 11.5902C14.5516 11.651 14.6331 11.7091 14.7304 11.7634C14.8287 11.8186 14.941 11.8663 15.0683 11.9075C15.1956 11.9487 15.336 11.9693 15.4886 11.9693C15.6964 11.9693 15.8583 11.93 15.9762 11.8523C16.0942 11.7737 16.1522 11.666 16.1522 11.5294C16.1522 11.4198 16.1204 11.3328 16.0586 11.2682C15.9959 11.2036 15.9126 11.1503 15.8087 11.1063C15.7048 11.0632 15.5878 11.0267 15.4567 10.9977C15.3257 10.9687 15.1919 10.9378 15.0543 10.9069C14.9167 10.876 14.7828 10.8377 14.6518 10.7927C14.5207 10.7478 14.4028 10.687 14.2989 10.6102C14.195 10.5335 14.1117 10.438 14.049 10.3219C13.9863 10.2068 13.9554 10.0608 13.9554 9.8848C13.9554 9.73223 13.9816 9.58715 14.0349 9.45049C14.0874 9.31383 14.1651 9.19215 14.2671 9.08639C14.3691 8.98062 14.4964 8.89263 14.649 8.82243C14.8015 8.75223 14.9756 8.7073 15.1722 8.68765V8.14102C15.1722 8.06239 15.2096 8.02402 15.2836 8.02402H15.6945C15.7731 8.02402 15.8124 8.06333 15.8124 8.14102V8.69888C15.9847 8.72602 16.1335 8.76721 16.2589 8.82243C16.3843 8.87766 16.4901 8.93662 16.5762 9.00121C16.6623 9.06579 16.7316 9.13038 16.7849 9.19496C16.8374 9.25955 16.8776 9.31383 16.9057 9.35689C16.9178 9.38029 16.9235 9.40556 16.9235 9.43364C16.9235 9.46079 16.9019 9.49074 16.8589 9.52163L16.5004 9.76218C16.4218 9.80898 16.3693 9.80898 16.3422 9.76218C16.3188 9.73129 16.2842 9.69385 16.2392 9.6508C16.1943 9.60774 16.1382 9.56562 16.0717 9.52444C16.0052 9.48325 15.9238 9.44768 15.8283 9.41867C15.7319 9.38965 15.6234 9.37467 15.5026 9.37467C15.2798 9.37467 15.1057 9.42148 14.9831 9.51601C14.8596 9.60961 14.7978 9.72755 14.7978 9.86889C14.7978 9.96717 14.8287 10.0458 14.8914 10.1066C14.9541 10.1675 15.0374 10.2161 15.1413 10.2536C15.2452 10.291 15.3631 10.3219 15.497 10.3472C15.6299 10.3725 15.7656 10.4015 15.9023 10.4324C16.0389 10.4642 16.1747 10.5035 16.3076 10.5531C16.4405 10.6018 16.5594 10.6664 16.6633 10.7469C16.7672 10.8274 16.8505 10.9303 16.9132 11.0548C16.9759 11.1802 17.0068 11.3347 17.0068 11.5191C17.0068 11.6482 16.9834 11.7765 16.9366 11.9038C16.8898 12.0311 16.8177 12.1453 16.7222 12.2473C16.6258 12.3493 16.5032 12.4364 16.3525 12.5084C16.2018 12.5805 16.0221 12.6292 15.8152 12.6526V13.2404C15.8152 13.3228 15.7759 13.3639 15.6973 13.3639H15.2864C15.2115 13.3639 15.175 13.3228 15.175 13.2404V12.646H15.1694Z"/>
  <path d="M19.011 5.54883H0.990967V15.8393H19.011V5.54883Z" stroke="white" stroke-width="1.3" stroke-miterlimit="10" stroke-linecap="round" stroke-linejoin="round"/>
  <path d="M7.36841 5.54883V8.02456" stroke="white" stroke-width="1.3" stroke-miterlimit="10" stroke-linecap="round" stroke-linejoin="round"/>
  <path d="M12.7484 5.54883V8.02456" stroke="white" stroke-width="1.3" stroke-miterlimit="10" stroke-linecap="round" stroke-linejoin="round"/>
  <path d="M7.36841 13.3642V15.8399" stroke="white" stroke-width="1.3" stroke-miterlimit="10" stroke-linecap="round" stroke-linejoin="round"/>
  <path d="M12.7484 13.3642V15.8399" stroke="white" stroke-width="1.3" stroke-miterlimit="10" stroke-linecap="round" stroke-linejoin="round"/>
</svg>
