<svg width="20" height="20" viewBox="0 0 20 20" fill="none" xmlns="http://www.w3.org/2000/svg">
  <g clip-path="url(#clip0_1_116)">
    <path d="M16.4542 15.8995C17.6977 14.733 16.1026 11.0123 12.8916 7.58921C9.68045 4.16609 6.06927 2.33674 4.82575 3.50324C3.58223 4.66974 5.17727 8.39036 8.38837 11.8135C11.5995 15.2366 15.2106 17.066 16.4542 15.8995Z" stroke="#EF127C" stroke-width="1.5" stroke-miterlimit="10" stroke-linecap="round" stroke-linejoin="round"/>
    <path d="M16.4542 15.8976L14.8261 17.4247C13.5818 18.5915 9.97171 16.7624 6.76093 13.34C3.54876 9.91631 1.9531 6.19686 3.19681 5.02908L4.82494 3.50193" stroke="#EF127C" stroke-width="1.5" stroke-miterlimit="10" stroke-linecap="round" stroke-linejoin="round"/>
    <path d="M12.7082 12.0652C12.5573 12.1551 12.4 12.2078 12.2376 12.2212C12.0751 12.2355 11.9206 12.2294 11.7741 12.2031C11.6276 12.1768 11.4914 12.1377 11.3671 12.0863C11.2429 12.0349 11.1454 11.9898 11.0751 11.9529C10.9938 11.9087 10.9424 11.8397 10.9223 11.7472L10.7935 11.233C10.7672 11.1285 10.7957 11.093 10.88 11.1259C10.9447 11.1519 11.0296 11.1824 11.1352 11.2167C11.2407 11.251 11.3539 11.2728 11.4733 11.2814C11.5926 11.2901 11.7136 11.2829 11.8356 11.2586C11.9577 11.2344 12.0648 11.1794 12.157 11.0928C12.2825 10.9755 12.3375 10.8376 12.3222 10.679C12.3069 10.5205 12.2245 10.3613 12.0734 10.2009C11.9524 10.0727 11.838 9.98771 11.729 9.94727C11.6199 9.90683 11.5102 9.89124 11.4001 9.8997C11.29 9.90815 11.1792 9.93196 11.0676 9.97192C10.956 10.0119 10.8417 10.052 10.7246 10.0931C10.6075 10.1342 10.4844 10.165 10.3553 10.1865C10.2262 10.208 10.0884 10.2039 9.94243 10.1725C9.79539 10.1417 9.64024 10.0769 9.47478 9.97646C9.31011 9.87626 9.13038 9.72286 8.93718 9.51668C8.76939 9.338 8.62576 9.15287 8.50688 8.96229C8.38801 8.7717 8.3016 8.58551 8.24664 8.40429C8.19189 8.22226 8.1716 8.04688 8.18656 7.87836C8.20152 7.70984 8.25704 7.55736 8.35409 7.42377L7.75364 6.78324C7.66787 6.69125 7.64696 6.6244 7.69194 6.5821L7.94062 6.3494C7.98786 6.30512 8.05476 6.32908 8.14075 6.42027L8.75471 7.07477C8.88881 7.00891 9.02422 6.97359 9.15976 6.96678C9.2961 6.96018 9.4255 6.96983 9.54855 6.99677C9.67159 7.0237 9.78438 7.05996 9.8877 7.10576C9.99102 7.15156 10.0742 7.19197 10.1381 7.2272C10.1713 7.24817 10.203 7.27478 10.2324 7.30681C10.2626 7.33905 10.282 7.38566 10.2907 7.44665L10.3391 7.93236C10.3435 8.03188 10.3112 8.06206 10.2434 8.02231C10.1945 7.99885 10.1328 7.97457 10.0585 7.94947C9.98409 7.92437 9.90413 7.90726 9.81821 7.89631C9.73309 7.88558 9.64468 7.89036 9.55481 7.91027C9.46493 7.93019 9.38313 7.97469 9.30962 8.04299C9.17469 8.16987 9.12159 8.323 9.15111 8.50258C9.17961 8.68275 9.27231 8.8551 9.42718 9.02082C9.53439 9.13581 9.64106 9.21098 9.74537 9.24669C9.84967 9.2824 9.954 9.29224 10.0579 9.27782C10.1613 9.26238 10.2677 9.23223 10.3756 9.18695C10.4843 9.14189 10.597 9.0979 10.7141 9.05682C10.8312 9.01574 10.9572 8.98653 11.0916 8.96817C11.2259 8.94981 11.3684 8.95868 11.5194 8.99396C11.6704 9.02925 11.8337 9.10234 12.0091 9.21403C12.1845 9.32572 12.3738 9.48858 12.5763 9.70503C12.7187 9.85619 12.8455 10.0204 12.9571 10.1961C13.0688 10.3718 13.1513 10.5466 13.2056 10.7208C13.2599 10.8949 13.2812 11.0663 13.2693 11.2365C13.2581 11.4069 13.2021 11.5644 13.1029 11.7095L13.749 12.3985C13.8395 12.4952 13.8612 12.5657 13.8139 12.61L13.5653 12.8427C13.5203 12.885 13.4526 12.8574 13.3619 12.7614L12.7082 12.0652Z" fill="#EF127C" stroke="#EF127C" stroke-width="0.2" stroke-miterlimit="10" stroke-linecap="round" stroke-linejoin="round"/>
  </g>
  <defs>
  <clipPath id="clip0_1_116">
    <rect width="20" height="20" fill="#EF127C"/>
  </clipPath>
  </defs>
</svg>
