<svg width="50" height="53" viewBox="0 0 50 53" fill="none" xmlns="http://www.w3.org/2000/svg">
  <path d="M42.2777 15.0594C42.2197 15.2154 42.2135 15.4285 42.2715 15.5829C42.8766 17.2293 43.1023 18.9205 43.049 20.7059C43.0412 20.9994 43.0255 21.2959 43.002 21.594C43.002 21.5986 43.0004 21.6033 43.0004 21.6079C42.8719 22.8373 42.4173 25.1787 40.8151 27.6745C37.037 33.0616 31.6317 35.61 24.9017 35.5914C17.8331 35.5729 12.2318 32.7357 8.45377 26.6845L8.45063 26.6799C7.06481 23.8319 6.8955 21.4395 6.87669 21.0828C6.87512 21.0519 6.87512 21.0364 6.87512 21.0364C6.77479 19.2171 7.00681 17.4456 7.58528 15.7111C7.68091 15.4285 7.60566 15.0609 7.51944 14.7567C6.45969 10.9758 6.19319 7.16099 7.07108 3.31528C7.22942 2.62645 7.54295 1.94535 7.91135 1.33528C8.61367 0.166126 9.75023 -0.258601 11.0765 0.153771C11.7631 0.366906 12.4748 0.652632 13.0361 1.08354C14.2055 1.98087 15.3013 2.9755 16.3924 3.96859C17.0023 4.5246 17.5431 5.15628 18.1764 5.81731C22.6725 4.35625 27.1921 4.34235 31.7352 5.8204C32.3858 5.14393 33.0128 4.49371 33.6383 3.84195C34.7388 2.70059 35.8895 1.61329 37.28 0.817889C37.7942 0.524441 38.357 0.281961 38.9261 0.121337C40.1253 -0.218445 41.1475 0.166126 41.8921 1.14995C42.5176 1.97624 42.8045 2.93844 43.0098 3.92535C43.4457 6.01191 43.4206 8.12165 43.2419 10.2283C43.1023 11.8701 42.8688 13.501 42.2777 15.0594Z" fill="white"/>
  <path d="M47.7843 50.6033C46.9818 50.8179 46.0593 50.8592 45.2124 50.8116C43.497 50.7155 41.8806 50.2635 40.4416 49.5826C38.4091 48.6202 36.4709 47.5422 34.495 46.5104C34.3188 46.4185 34.1568 46.3105 33.9731 46.1984C33.9069 46.2784 33.8638 46.3146 33.8473 46.3564C33.0782 48.3501 31.2091 49.223 28.6458 48.786C27.2307 48.5449 26.0513 47.9695 24.9799 47.2453C24.5175 46.9324 24.0567 46.6177 23.5738 46.2903C23.3815 46.5559 23.2203 46.8149 23.0151 47.0519C22.1569 48.0511 20.9295 48.5155 19.4826 48.269C18.5898 48.1169 17.7592 47.7152 16.9536 47.357C16.4791 47.1459 16.1031 46.8001 15.6287 46.4774C15.5221 46.6964 15.4481 46.8625 15.3622 47.0223C14.7034 48.2668 13.5518 49.0711 11.8813 49.4002C10.4866 49.6746 9.08448 49.6199 7.82976 49.1798C5.97121 48.5272 4.15542 47.7905 2.41396 46.9717C1.71238 46.6433 1.20405 46.0322 0.707152 45.4943C0.356216 45.1149 0.418802 44.6439 0.839359 44.2536C1.25984 43.8616 1.80351 43.7919 2.39405 43.926C2.568 43.9649 2.73133 44.0265 2.89617 44.0846C4.55961 44.6683 6.2046 45.2855 7.89272 45.827C8.66202 46.0736 9.49731 46.2366 10.3279 46.3279C11.4329 46.4468 11.8729 46.1603 12.1887 45.2993C12.3859 44.7625 12.5042 44.1999 12.7973 43.695C13.4021 42.6587 14.8254 42.3951 15.9494 43.0707C16.2657 43.2612 16.5406 43.4895 16.8426 43.6944C17.5217 44.1541 18.1738 44.6424 18.8942 45.0608C20.0477 45.73 20.299 45.6403 20.6479 44.5463C20.6581 44.515 20.6651 44.4838 20.6753 44.4525C21.2205 42.7995 22.7921 42.4026 24.3871 43.5142C24.5511 43.6289 24.7038 43.751 24.8694 43.8657C25.6907 44.4359 26.4613 45.0598 27.3524 45.5567C28.0194 45.9294 28.81 46.2093 29.6016 46.3966C30.4735 46.6009 30.9579 46.2696 31.0244 45.5446C31.0641 45.1175 31.0108 44.6875 31.0438 44.2607C31.0818 43.7565 31.3161 43.3124 31.9836 43.1173C32.6479 42.9241 33.1465 43.1548 33.604 43.5091C35.9466 45.3262 38.6096 46.8104 41.5367 48.0037C42.9092 48.564 44.3607 48.9956 45.9467 49.0509C46.4395 49.0675 46.9654 49.0106 47.4408 48.8924C47.9637 48.7636 48.3747 47.9208 48.0248 47.7969C47.3451 47.5534 47.6743 47.1567 47.6983 46.828C47.7129 46.6301 47.9188 46.3331 48.1217 46.2746C48.3394 46.2121 48.7266 46.3173 48.9196 46.4531C50.6167 47.6649 50.0052 50.0103 47.7843 50.6033Z" fill="#EF127C"/>
</svg>
