<svg width="24" height="24" viewBox="0 0 24 24" fill="none" xmlns="http://www.w3.org/2000/svg">
  <circle cx="12" cy="12" r="11.5" fill="#0A0527" stroke="url(#paint0_linear_1_169)"/>
  <path d="M16.0975 17.1429L5.36285 17.1399C5.16892 17.1428 5.07046 16.9071 5.2077 16.7761L7.332 14.7068C7.41256 14.6282 7.52587 14.5788 7.64223 14.5788H18.374C18.5709 14.5788 18.6663 14.8115 18.5291 14.9454L16.4049 17.0147C16.3243 17.0962 16.2139 17.14 16.0975 17.1429ZM7.332 13.1469L5.2077 11.0804C5.07046 10.9436 5.16594 10.7166 5.36285 10.7166H16.0975C16.2139 10.7166 16.3243 10.7602 16.4049 10.8447L18.5291 12.9081C18.6663 13.042 18.5709 13.272 18.374 13.2691H7.63924C7.52587 13.272 7.41256 13.2283 7.332 13.1469ZM5.2077 9.04893L7.332 6.98249C7.41554 6.90391 7.52288 6.85438 7.63924 6.85729H18.374C18.5709 6.85438 18.6663 7.09013 18.5291 7.2211L16.4049 9.29052C16.3243 9.37201 16.2139 9.41558 16.0975 9.41558H5.36285C5.16892 9.41558 5.07046 9.18281 5.2077 9.04893Z" fill="url(#paint1_linear_1_169)"/>
  <defs>
    <linearGradient id="paint0_linear_1_169" x1="17.3688" y1="20.7468" x2="4.10814" y2="6.84355" gradientUnits="userSpaceOnUse">
      <stop stop-color="#24F0AA"/>
      <stop offset="1" stop-color="#7A6CDA"/>
    </linearGradient>
    <linearGradient id="paint1_linear_1_169" x1="14.8773" y1="8.2514" x2="9.4598" y2="15.6791" gradientUnits="userSpaceOnUse">
      <stop stop-color="#24F0AA"/>
      <stop offset="1" stop-color="#7A6CDA"/>
    </linearGradient>
  </defs>
</svg>
