<svg width="20" height="21" viewBox="0 0 20 21" fill="none" xmlns="http://www.w3.org/2000/svg">
  <path d="M18.3109 16.4819C17.2398 14.602 15.5673 13.1372 13.5625 12.3233C14.5594 11.5756 15.2959 10.5332 15.6674 9.3437C16.039 8.15421 16.0269 6.87796 15.6328 5.69573C15.2387 4.5135 14.4827 3.48524 13.4717 2.75658C12.4608 2.02793 11.2462 1.63583 10 1.63583C8.75383 1.63583 7.53924 2.02793 6.52829 2.75658C5.51734 3.48524 4.76127 4.5135 4.3672 5.69573C3.97312 6.87796 3.96101 8.15421 4.33258 9.3437C4.70415 10.5332 5.44056 11.5756 6.4375 12.3233C4.43276 13.1372 2.76019 14.602 1.68907 16.4819C1.6227 16.5886 1.57846 16.7076 1.55899 16.8318C1.53952 16.9559 1.54521 17.0827 1.57572 17.2047C1.60624 17.3266 1.66096 17.4411 1.73662 17.5415C1.81228 17.6418 1.90735 17.7259 2.01617 17.7888C2.12499 17.8517 2.24534 17.892 2.37007 17.9074C2.49479 17.9229 2.62135 17.9131 2.74221 17.8786C2.86307 17.8441 2.97577 17.7857 3.0736 17.7069C3.17144 17.628 3.25242 17.5302 3.31172 17.4194C4.72735 14.9726 7.22735 13.5132 10 13.5132C12.7727 13.5132 15.2727 14.9733 16.6883 17.4194C16.8168 17.6261 17.0207 17.7747 17.2568 17.8338C17.4928 17.8929 17.7427 17.8578 17.9534 17.7361C18.1641 17.6143 18.3192 17.4154 18.386 17.1814C18.4527 16.9473 18.4258 16.6965 18.3109 16.4819ZM5.9375 7.57568C5.9375 6.77219 6.17577 5.98675 6.62216 5.31867C7.06855 4.6506 7.70303 4.1299 8.44535 3.82242C9.18768 3.51494 10.0045 3.43448 10.7926 3.59124C11.5806 3.74799 12.3045 4.13491 12.8726 4.70306C13.4408 5.27121 13.8277 5.99507 13.9844 6.78312C14.1412 7.57117 14.0607 8.388 13.7533 9.13033C13.4458 9.87265 12.9251 10.5071 12.257 10.9535C11.5889 11.3999 10.8035 11.6382 10 11.6382C8.92294 11.6369 7.89035 11.2085 7.12875 10.4469C6.36716 9.68533 5.93874 8.65274 5.9375 7.57568Z" fill="white"/>
</svg>
